<svg xmlns="http://www.w3.org/2000/svg" width="58" height="55" fill="none" viewBox="0 0 58 55">
  <path fill="#fff" d="M16.44 4.547a7.649 7.649 0 0 0-2.427 2.577A7.7 7.7 0 0 0 13 10.525v6.809a7.7 7.7 0 0 0 1.013 3.4 7.648 7.648 0 0 0 2.428 2.578l7.119 4.22c1.888 1.097 3.44.197 3.44-1.997V2.465C27 .271 25.448-.629 23.56.468l-7.12 4.08Zm-.741 20.241a7.446 7.446 0 0 0-6.668 0l-5.69 3.228a7.362 7.362 0 0 0-2.357 2.465A7.281 7.281 0 0 0 0 33.733v7.91c0 2.098 1.508 2.959 3.34 1.91l19.285-11.03c1.833-1.05 1.833-2.758 0-3.808l-6.926-3.927ZM41.56 4.547a7.647 7.647 0 0 1 2.427 2.577A7.697 7.697 0 0 1 45 10.525v6.809a7.697 7.697 0 0 1-1.013 3.4 7.646 7.646 0 0 1-2.428 2.578l-7.132 4.22C32.538 28.63 31 27.73 31 25.535V2.465C31 .271 32.538-.629 34.427.468l7.133 4.08Zm.092 20.241A8.03 8.03 0 0 1 45.127 24a8.03 8.03 0 0 1 3.475.788l5.93 3.228a7.487 7.487 0 0 1 2.45 2.466A7.042 7.042 0 0 1 58 33.732v7.91c0 2.099-1.557 2.96-3.468 1.91l-20.099-11.03c-1.91-1.049-1.91-2.757 0-3.807l7.219-3.927ZM12.306 54.214a7.46 7.46 0 0 0 6.671 0l5.694-3.238a7.37 7.37 0 0 0 2.353-2.47A7.275 7.275 0 0 0 28 45.253v-7.899c0-2.095-1.495-2.955-3.329-1.907L5.376 46.462c-1.835 1.048-1.835 2.754 0 3.802l6.93 3.95ZM29 45.26a7.044 7.044 0 0 0 1.019 3.244 7.494 7.494 0 0 0 2.449 2.461l5.93 3.249a8.042 8.042 0 0 0 3.475.786 8.05 8.05 0 0 0 3.475-.786l7.219-3.96c1.91-1.047 1.91-2.752 0-3.8l-20.1-11.008C30.558 34.4 29 35.258 29 37.353v7.907Z"/>
</svg>