<svg xmlns="http://www.w3.org/2000/svg" width="318" height="55" fill="none" viewBox="0 0 318 55">
  <path fill="#AC6AFF" d="M16.44 4.547a7.649 7.649 0 0 0-2.427 2.577A7.7 7.7 0 0 0 13 10.525v6.809a7.7 7.7 0 0 0 1.013 3.4 7.648 7.648 0 0 0 2.428 2.578l7.119 4.22c1.888 1.097 3.44.197 3.44-1.997V2.465C27 .271 25.448-.629 23.56.468l-7.12 4.08Zm-.741 20.241a7.446 7.446 0 0 0-6.668 0l-5.69 3.228a7.362 7.362 0 0 0-2.357 2.465A7.281 7.281 0 0 0 0 33.733v7.91c0 2.098 1.508 2.959 3.34 1.91l19.285-11.03c1.833-1.05 1.833-2.758 0-3.808l-6.926-3.927ZM41.56 4.547a7.647 7.647 0 0 1 2.427 2.577A7.697 7.697 0 0 1 45 10.525v6.809a7.697 7.697 0 0 1-1.013 3.4 7.646 7.646 0 0 1-2.428 2.578l-7.132 4.22C32.538 28.63 31 27.73 31 25.535V2.465C31 .271 32.538-.629 34.427.468l7.133 4.08Zm.092 20.241A8.03 8.03 0 0 1 45.127 24a8.03 8.03 0 0 1 3.475.788l5.93 3.228a7.487 7.487 0 0 1 2.45 2.466A7.042 7.042 0 0 1 58 33.732v7.91c0 2.099-1.557 2.96-3.468 1.91l-20.099-11.03c-1.91-1.049-1.91-2.757 0-3.807l7.219-3.927ZM12.306 54.214a7.46 7.46 0 0 0 6.671 0l5.694-3.238a7.37 7.37 0 0 0 2.353-2.47A7.275 7.275 0 0 0 28 45.253v-7.899c0-2.095-1.495-2.955-3.329-1.907L5.376 46.462c-1.835 1.048-1.835 2.754 0 3.802l6.93 3.95ZM29 45.26a7.044 7.044 0 0 0 1.019 3.244 7.494 7.494 0 0 0 2.449 2.461l5.93 3.249a8.042 8.042 0 0 0 3.475.786 8.05 8.05 0 0 0 3.475-.786l7.219-3.96c1.91-1.047 1.91-2.752 0-3.8l-20.1-11.008C30.558 34.4 29 35.258 29 37.353v7.907Z"/>
  <path fill="#fff" d="M76.04 42.16v-6.12h5.44c1.36 0 2.587-.2 3.68-.6 1.093-.427 2.027-1.013 2.8-1.76a7.647 7.647 0 0 0 1.76-2.76c.4-1.093.6-2.293.6-3.6 0-1.36-.2-2.573-.6-3.64a7.27 7.27 0 0 0-1.76-2.72c-.773-.747-1.707-1.307-2.8-1.68-1.093-.4-2.32-.6-3.68-.6h-5.44v-6.12h5.08c2.64 0 4.947.387 6.92 1.16 1.973.773 3.627 1.827 4.96 3.16a12.625 12.625 0 0 1 2.96 4.6c.667 1.707 1 3.507 1 5.4v.88c0 1.76-.333 3.507-1 5.24-.64 1.707-1.627 3.253-2.96 4.64-1.333 1.36-2.987 2.453-4.96 3.28-1.973.827-4.28 1.24-6.92 1.24h-5.08Zm-5.76 0v-29.6h6.56v29.6h-6.56Zm31.25-.16V12.8h6.4V42h-6.4Zm5.6 0v-5.44h12.76V42h-12.76Zm0-12.12v-5.44h11.84v5.44h-11.84Zm0-11.64V12.8h12.48v5.44h-12.48ZM131.72 42l-8.88-29.2h6.76l7.04 24.64-1.52-.76h4.08l-1.6.76 6.52-24.64h6.56L142.4 42h-10.68Zm36.062.76c-2.64 0-4.907-.453-6.8-1.36-1.894-.933-3.44-2.147-4.64-3.64-1.2-1.52-2.094-3.147-2.68-4.88-.56-1.76-.84-3.467-.84-5.12v-.88c0-1.813.293-3.6.88-5.36a14.6 14.6 0 0 1 2.68-4.84c1.226-1.44 2.76-2.587 4.6-3.44 1.866-.88 4.066-1.32 6.6-1.32 2.64 0 4.973.493 7 1.48 2.026.987 3.64 2.36 4.84 4.12 1.226 1.733 1.946 3.773 2.16 6.12h-6.6c-.187-1.173-.614-2.173-1.28-3-.667-.827-1.534-1.467-2.6-1.92-1.04-.453-2.214-.68-3.52-.68-1.307 0-2.467.227-3.48.68a7.039 7.039 0 0 0-2.56 1.92c-.667.827-1.187 1.813-1.56 2.96-.347 1.12-.52 2.373-.52 3.76 0 1.36.173 2.613.52 3.76a9.296 9.296 0 0 0 1.6 2.96 7.33 7.33 0 0 0 2.64 1.92c1.04.427 2.226.64 3.56.64 2.026 0 3.733-.493 5.12-1.48 1.413-.987 2.266-2.347 2.56-4.08h6.56a13.007 13.007 0 0 1-2.16 5.88c-1.174 1.76-2.787 3.173-4.84 4.24-2.027 1.04-4.44 1.56-7.24 1.56Zm32.592 0c-2.64 0-4.947-.453-6.92-1.36-1.947-.933-3.56-2.147-4.84-3.64-1.28-1.52-2.24-3.16-2.88-4.92-.614-1.76-.92-3.453-.92-5.08v-.88c0-1.813.32-3.6.96-5.36a14.88 14.88 0 0 1 2.96-4.84c1.306-1.44 2.933-2.587 4.88-3.44 1.946-.88 4.2-1.32 6.76-1.32 2.56 0 4.813.44 6.76 1.32 1.946.853 3.573 2 4.88 3.44a14.914 14.914 0 0 1 2.96 4.84c.666 1.76 1 3.547 1 5.36v.88c0 1.627-.32 3.32-.96 5.08-.64 1.76-1.6 3.4-2.88 4.92-1.28 1.493-2.907 2.707-4.88 3.64-1.947.907-4.24 1.36-6.88 1.36Zm0-6.12c1.386 0 2.626-.24 3.72-.72a8.066 8.066 0 0 0 2.84-2c.8-.853 1.4-1.84 1.8-2.96.4-1.12.6-2.32.6-3.6 0-1.36-.214-2.6-.64-3.72-.4-1.147-1-2.133-1.8-2.96a7.721 7.721 0 0 0-2.8-1.96c-1.094-.453-2.334-.68-3.72-.68-1.387 0-2.627.227-3.72.68a8.092 8.092 0 0 0-2.84 1.96c-.774.827-1.36 1.813-1.76 2.96-.4 1.12-.6 2.36-.6 3.72 0 1.28.2 2.48.6 3.6a8.72 8.72 0 0 0 1.76 2.96 8.57 8.57 0 0 0 2.84 2c1.093.48 2.333.72 3.72.72Zm26.33 5.52v-6.12h5.44c1.36 0 2.587-.2 3.68-.6 1.093-.427 2.027-1.013 2.8-1.76a7.65 7.65 0 0 0 1.76-2.76c.4-1.093.6-2.293.6-3.6 0-1.36-.2-2.573-.6-3.64a7.274 7.274 0 0 0-1.76-2.72c-.773-.747-1.707-1.307-2.8-1.68-1.093-.4-2.32-.6-3.68-.6h-5.44v-6.12h5.08c2.64 0 4.947.387 6.92 1.16 1.973.773 3.627 1.827 4.96 3.16a12.629 12.629 0 0 1 2.96 4.6c.667 1.707 1 3.507 1 5.4v.88c0 1.76-.333 3.507-1 5.24-.64 1.707-1.627 3.253-2.96 4.64-1.333 1.36-2.987 2.453-4.96 3.28-1.973.827-4.28 1.24-6.92 1.24h-5.08Zm-5.76 0v-29.6h6.56v29.6h-6.56Zm31.25-.16V12.8h6.4V42h-6.4Zm5.6 0v-5.44h12.76V42h-12.76Zm0-12.12v-5.44h11.84v5.44h-11.84Zm0-11.64V12.8h12.48v5.44h-12.48ZM275.944 42V12.56h6.56V42h-6.56Zm17.72 0-8.56-12.56h7.2l8.96 12.56h-7.6Zm-12.92-9.36v-5.16h7.2c.96 0 1.787-.187 2.48-.56.72-.4 1.267-.947 1.64-1.64.4-.72.6-1.547.6-2.48s-.2-1.747-.6-2.44a3.747 3.747 0 0 0-1.64-1.64c-.693-.4-1.52-.6-2.48-.6h-7.2v-5.56h6.68c2.427 0 4.533.373 6.32 1.12 1.787.72 3.16 1.8 4.12 3.24.96 1.44 1.44 3.253 1.44 5.44V23c0 2.16-.493 3.96-1.48 5.4-.96 1.413-2.333 2.48-4.12 3.2-1.76.693-3.853 1.04-6.28 1.04h-6.68Z"/>
</svg>