<svg xmlns="http://www.w3.org/2000/svg" width="160" height="64" fill="none" viewBox="0 0 160 64">
  <path fill="#fff" fill-rule="evenodd" d="m9.629 39.916 4.503-.75c1.126-.188 1.313-.75 1.313-1.314 0-1.313-.938-2.439-3.19-2.439-2.25 0-3.377 1.314-3.564 3.002l-4.503-.938c.375-3.002 3.002-6.192 8.068-6.192 5.816 0 8.068 3.378 8.068 7.13v9.194c0 .495.052 1.095.102 1.661.044.507.086.987.086 1.341h-4.504c-.187-.563-.187-1.5-.187-2.251-.938 1.5-2.815 2.814-5.441 2.814-3.94 0-6.38-2.627-6.38-5.629 0-3.377 2.44-5.254 5.629-5.629Zm6.004 3.19v-.75l-4.128.562c-1.313.188-2.251.938-2.251 2.44 0 1.125.75 2.251 2.439 2.251 1.876-.188 3.94-1.313 3.94-4.503Z" clip-rule="evenodd"/>
  <path fill="#fff" d="m27.83 41.23-6.568-9.382h6.004c.405.675 1.78 2.708 2.8 4.216l.002.002c.397.588.74 1.095.951 1.411l3.753-5.629h10.132l3.565 12.008 3.94-12.008h5.254l4.128 12.008 3.377-12.008h5.066l-5.817 18.763h-5.066l-4.315-12.759-4.316 12.76h-5.066l-5.772-18.038-6.048 8.468 6.754 9.57h-5.816l-3.94-5.817c-.751.938-3.19 4.69-3.753 5.816h-5.63l6.38-9.381Z"/>
  <path fill="#fff" fill-rule="evenodd" d="m75.3 39.916 4.503-.75c1.126-.188 1.314-.75 1.314-1.314 0-1.313-.939-2.439-3.19-2.439-2.252 0-3.377 1.314-3.565 3.002l-4.503-.938c.375-3.002 3.002-6.192 8.068-6.192 5.816 0 8.068 3.378 8.068 7.13v9.194c0 .495.052 1.095.102 1.661.044.507.086.987.086 1.341h-4.691c-.188-.563-.188-1.5-.188-2.251-.938 1.5-2.814 2.814-5.441 2.814-3.94 0-6.38-2.627-6.38-5.629.188-3.377 2.627-5.254 5.817-5.629Zm6.004 3.19v-.75l-4.128.562c-1.313.188-2.251.938-2.251 2.44 0 1.125.75 2.251 2.439 2.251 1.876-.188 3.94-1.313 3.94-4.503Z" clip-rule="evenodd"/>
  <path fill="#fff" d="m93.688 48.172-4.316 9.757h5.254l11.821-26.081h-5.441l-4.504 11.07-5.066-11.07h-5.629l7.88 16.324Z"/>
  <path fill="#fff" d="M155.999 25.022v-6.38l-9.569-4.69v9.569l-36.588-17.45v6.38l41.842 19.889v-9.382l4.315 2.064Zm-36.795 4.574v6.38l6.755 3.19-10.883 11.445h7.13l12.759-13.51-15.761-7.505Zm-4.315-11.633 36.776 17.638-7.506 2.814-29.27-14.072v-6.38Z"/>
</svg>
