<svg xmlns="http://www.w3.org/2000/svg" width="160" height="56" fill="none" viewBox="0 0 160 56">
  <path fill="#fff" d="M67.067 41.529h-.068c.03 0 .05.034.081.037h.02l-.033-.034v-.003Zm.013.037c-.316.004-1.113.17-1.953.17-2.655 0-3.574-1.225-3.574-2.824V28.255h5.412c.306 0 .544-.272.544-.646v-5.786c0-.306-.272-.579-.544-.579h-5.412v-7.181c0-.273-.17-.443-.476-.443h-7.352c-.306 0-.477.17-.477.443v7.385s-3.71.92-3.947.953a.583.583 0 0 0-.443.579v4.629c0 .374.272.646.579.646h3.778V39.42c0 8.304 5.785 9.155 9.733 9.155 1.804 0 3.983-.578 4.323-.748.204-.069.306-.307.306-.545v-5.105a.603.603 0 0 0-.497-.613v.003Zm80.65-7.49c0-6.161-2.485-6.978-5.106-6.706-2.042.137-3.675 1.158-3.675 1.158v11.98s1.667 1.157 4.152 1.225c3.505.102 4.629-1.157 4.629-7.658Zm8.27-.545c0 11.674-3.778 15.01-10.381 15.01-5.581 0-8.576-2.826-8.576-2.826s-.137 1.566-.307 1.77c-.102.204-.272.272-.476.272h-5.037c-.341 0-.647-.272-.647-.578l.068-37.813c0-.306.272-.579.579-.579h7.249c.306 0 .579.273.579.579v12.831s2.79-1.804 6.875-1.804l-.034-.068c4.084 0 10.108 1.532 10.108 13.206Zm-29.678-12.287h-7.148c-.374 0-.578.273-.578.647v18.515s-1.872 1.327-4.425 1.327-3.301-1.157-3.301-3.71V21.857a.597.597 0 0 0-.579-.579h-7.283a.596.596 0 0 0-.579.579v17.392c0 7.487 4.186 9.36 9.938 9.36 4.731 0 8.577-2.621 8.577-2.621s.17 1.327.272 1.531c.068.17.307.306.545.306h4.561c.374 0 .578-.272.578-.578l.068-25.424c0-.306-.272-.579-.646-.579Zm-80.663-.034h-7.25c-.306 0-.578.306-.578.68v24.983c0 .68.442.918 1.02.918h6.535c.681 0 .851-.306.851-.918V21.789a.596.596 0 0 0-.578-.579ZM42.085 9.706a4.663 4.663 0 0 0-4.697 4.697 4.663 4.663 0 0 0 4.697 4.697c2.553 0 4.629-2.076 4.629-4.697 0-2.62-2.076-4.697-4.629-4.697Zm56.124-.85h-7.182a.596.596 0 0 0-.578.578v13.92H79.183V9.434a.596.596 0 0 0-.578-.579h-7.25a.596.596 0 0 0-.579.58v37.812c0 .306.307.578.58.578h7.249a.596.596 0 0 0 .578-.578V31.08H90.45l-.068 16.167c0 .306.272.578.578.578h7.25a.596.596 0 0 0 .578-.578V9.434a.596.596 0 0 0-.578-.579ZM33.985 25.6v19.536c0 .136-.034.374-.204.442 0 0-4.255 3.03-11.266 3.03C14.04 48.608 4 45.952 4 28.458 4 10.967 12.781 7.359 21.358 7.393c7.42 0 10.415 1.668 10.891 1.974.136.17.204.306.204.476l-1.43 6.059c0 .306-.306.68-.68.578-1.225-.374-3.063-1.123-7.386-1.123-5.003 0-10.38 1.43-10.38 12.695 0 11.266 5.105 12.593 8.78 12.593 3.132 0 4.255-.374 4.255-.374v-7.828H20.61c-.374 0-.647-.273-.647-.579v-6.262c0-.307.273-.579.647-.579h12.73c.373 0 .646.272.646.579Z"/>
</svg>
