<svg xmlns="http://www.w3.org/2000/svg" width="160" height="48" fill="none" viewBox="0 0 160 48">
  <path fill="#fff" d="M43.386 4v1.23h1.23V4h-1.23Zm0 2.462v1.23h1.23v-1.23h-1.23Zm-3.692 1.23v1.231h1.23v-1.23h-1.23Zm-16.104.923c-9.772 0-17.692 7.92-17.692 17.691C5.898 36.08 13.818 44 23.59 44c9.773 0 17.692-7.92 17.692-17.694s-7.92-17.691-17.69-17.691h-.002Zm0 5.641c6.65 0 12.052 5.401 12.052 12.05 0 6.65-5.402 12.052-12.052 12.052-6.65 0-11.999-5.402-11.999-12.051 0-6.65 5.35-12.05 12-12.05Z"/>
  <path fill="#fff" d="M51.55 35.669c-2.543 0-4.676-.632-6.4-1.896l1.65-2.708c1.379.969 2.938 1.453 4.677 1.453.853 0 1.526-.164 2.018-.492.493-.345.739-.821.739-1.428 0-.164-.017-.312-.05-.443a1.082 1.082 0 0 0-.172-.37 1.811 1.811 0 0 0-.246-.32 1.361 1.361 0 0 0-.394-.295 6.721 6.721 0 0 0-.443-.246 7.82 7.82 0 0 0-1.23-.468 15.171 15.171 0 0 0-.764-.27 44.546 44.546 0 0 1-.861-.296 10.963 10.963 0 0 1-1.55-.665 8.844 8.844 0 0 1-1.306-.935 3.766 3.766 0 0 1-1.009-1.477c-.23-.607-.344-1.296-.344-2.067 0-1.56.541-2.766 1.624-3.619 1.083-.87 2.511-1.305 4.283-1.305 2.134 0 3.865.394 5.194 1.182l-1.255 2.83a8.827 8.827 0 0 0-3.816-.886c-1.706 0-2.56.558-2.56 1.674 0 .263.05.493.148.69.099.197.205.36.32.492.115.131.32.263.616.394.311.131.566.23.763.295l1.033.32.493.148c.574.18 1.066.353 1.477.517a8.4 8.4 0 0 1 1.353.714c.493.295.895.631 1.207 1.009.311.377.574.853.787 1.427.214.575.32 1.215.32 1.92 0 1.543-.55 2.782-1.649 3.718-1.083.935-2.634 1.403-4.652 1.403Zm12.377.344-4.652-13.317h3.865l2.387 9.305 2.019-9.305h3.618L67.35 35.595c-.886 2.986-2.732 4.48-5.539 4.48-.656 0-1.353-.074-2.092-.222l.394-2.61c.656.067 1.075.1 1.255.1.673 0 1.198-.107 1.576-.32.377-.198.705-.534.984-1.01ZM83.37 24.37c1.23-1.313 2.543-1.97 3.938-1.97 1.296 0 2.207.444 2.732 1.33.542.886.813 1.994.813 3.323v8.37H87.11v-8.42c0-1.017-.394-1.525-1.181-1.525-.624 0-1.321.344-2.093 1.034v8.91h-3.741v-8.418c0-1.018-.394-1.526-1.182-1.526-.722 0-1.42.36-2.092 1.083v8.861h-3.742V22.696h2.314l.739 1.945c1.296-1.493 2.683-2.24 4.16-2.24 1.477 0 2.502.656 3.077 1.97Zm16.828 2.905v-.32c0-.575-.131-.993-.394-1.256-.246-.262-.68-.394-1.304-.394-.968 0-2.158.329-3.57.985l-1.28-2.462c1.642-.951 3.365-1.427 5.17-1.427 1.69 0 2.962.418 3.815 1.255.87.82 1.305 1.994 1.305 3.52v8.246h-2.314c-.427-.902-.648-1.353-.665-1.353-1.165 1.066-2.412 1.6-3.741 1.6-1.132 0-2.084-.329-2.855-.985-.755-.673-1.133-1.584-1.133-2.732 0-1.346.435-2.33 1.305-2.954 1.017-.755 2.904-1.33 5.661-1.723Zm0 4.997v-2.683c-1.624.328-2.609.689-2.954 1.083-.23.246-.344.582-.344 1.009 0 .902.435 1.354 1.305 1.354.722 0 1.386-.255 1.993-.763Zm6.729 3.15V22.696h2.313l.739 1.945c1.296-1.493 2.716-2.24 4.258-2.24 2.429 0 3.643 1.55 3.643 4.652v8.37h-3.741v-8.42c0-1.017-.427-1.525-1.28-1.525-.788 0-1.518.36-2.191 1.083v8.861h-3.741Zm14.826-10.166h-1.871v-2.56h1.92l.64-3.618h3.053v3.618h2.707v2.56h-2.707v6.13c0 .557.09.943.271 1.156.18.214.549.32 1.107.32.312 0 .747-.082 1.305-.246l.443 2.585a8.971 8.971 0 0 1-2.855.468c-2.675 0-4.013-1.362-4.013-4.087v-6.326Zm12.267 4.899c.082.87.32 1.51.714 1.92.41.41 1.017.615 1.821.615.443 0 .886-.066 1.33-.197.459-.131.795-.254 1.009-.37.23-.114.566-.294 1.009-.54l1.477 2.363c-.509.377-.944.672-1.305.886-.361.197-.878.385-1.55.566-.673.18-1.42.27-2.24.27-1.871 0-3.365-.574-4.48-1.722-1.1-1.166-1.65-2.75-1.65-4.751 0-2.002.525-3.635 1.576-4.899 1.05-1.263 2.494-1.895 4.332-1.895 1.887 0 3.298.632 4.234 1.895.935 1.264 1.403 2.888 1.403 4.874v.985h-7.68Zm0-2.191h3.865c0-1.92-.616-2.88-1.847-2.88-.59 0-1.05.23-1.378.69-.328.442-.542 1.172-.64 2.19Zm15.678 7.705c-2.035 0-3.569-.6-4.603-1.797-1.017-1.215-1.526-2.798-1.526-4.751 0-1.953.533-3.561 1.6-4.825 1.067-1.263 2.576-1.895 4.529-1.895 1.723 0 3.126.476 4.21 1.427l-1.748 2.487c-.443-.329-.829-.55-1.157-.665-.328-.131-.755-.197-1.28-.197-1.526 0-2.289 1.206-2.289 3.619 0 2.363.779 3.544 2.338 3.544.837 0 1.682-.336 2.536-1.009l1.796 2.314c-1.165 1.165-2.633 1.748-4.406 1.748Zm-121.08-18.13c-3.213 4.013-4.022 5.776-5.302 9.023-1.452-2.937-3.185-4.964-6.186-6.306-.568-.146-.847-.23-1.231.307-.384.537-.15 1.02.308 1.59 1.202 1.493 2.552 2.872 3.488 4.564 1.097 1.984 2.463 5.251 2.922 6.103.366.676 1.252.974 1.592.974 1.815-.214 1.815-1.138 2.161-2.738.561-2.624 1.288-5.337 4.71-8.596v-4.923l-2.462.002Z"/>
  <path fill="#000" d="M42.155 5.23v1.232h1.231V5.23h-1.23Zm0 1.232h-2.461v1.23h2.461v-1.23Zm-2.461 1.23h-1.231v2.462h1.23V7.692Zm0 2.462v1.23h1.23v-1.23h-1.23Zm1.23 0h1.231v-1.23h-1.23v1.23Zm-1.23 1.23h-1.231v1.231h-1.23v-1.23H34.77v1.23h-1.23v1.231h1.23v1.23h-1.23v-1.23h-1.23v1.23h-1.232v1.232h-1.23v4.923h2.461V20h1.231v-1.23h1.23v-1.232h-1.23v-1.23h1.23v1.23h1.231v-1.23h1.231v-1.231h1.231v-1.23h1.23v-2.462Zm-2.462 0h1.231v-1.23h-1.23v1.23Zm0-1.23v-1.23h-1.23v1.23h1.23Z"/>
</svg>
