<svg xmlns="http://www.w3.org/2000/svg" width="204" height="48" fill="none" viewBox="0 0 204 48">
  <path fill="#706D6E" d="M195.68 22.095V18.8h-4.092v-5.122l-.138.042-3.843 1.176-.076.023V18.8h-6.066v-2.162c0-1.007.225-1.777.669-2.29.44-.509 1.071-.767 1.874-.767.578 0 1.177.136 1.778.405l.151.067v-3.47l-.071-.026c-.561-.202-1.325-.304-2.272-.304-1.194 0-2.278.26-3.224.775a5.509 5.509 0 0 0-2.212 2.187c-.52.934-.783 2.014-.783 3.208V18.8h-2.85v3.295h2.85v13.882h4.09V22.095h6.066v8.822c0 3.633 1.714 5.474 5.093 5.474a8.35 8.35 0 0 0 1.737-.193c.607-.13 1.021-.261 1.265-.4l.054-.032V32.44l-.167.11a2.85 2.85 0 0 1-.822.359 3.134 3.134 0 0 1-.808.137c-.792 0-1.378-.213-1.741-.634-.368-.425-.554-1.168-.554-2.207v-8.11h4.092Zm-30.289 10.952c-1.484 0-2.655-.493-3.48-1.462-.83-.975-1.25-2.365-1.25-4.13 0-1.821.42-3.247 1.251-4.239.825-.985 1.984-1.485 3.446-1.485 1.418 0 2.547.478 3.356 1.42.813.948 1.225 2.362 1.225 4.205 0 1.865-.388 3.298-1.153 4.256-.759.951-1.901 1.435-3.395 1.435Zm.182-14.66c-2.832 0-5.082.83-6.685 2.466-1.603 1.637-2.416 3.903-2.416 6.734 0 2.69.793 4.853 2.358 6.429 1.565 1.576 3.694 2.375 6.329 2.375 2.746 0 4.951-.842 6.554-2.501 1.603-1.658 2.415-3.902 2.415-6.667 0-2.732-.762-4.911-2.266-6.476-1.504-1.567-3.621-2.36-6.289-2.36Zm-15.696 0c-1.927 0-3.52.492-4.738 1.464-1.225.977-1.846 2.26-1.846 3.81 0 .807.134 1.523.398 2.13a4.28 4.28 0 0 0 1.223 1.597c.541.447 1.377.915 2.486 1.391.931.383 1.626.708 2.067.963.432.25.738.503.911.748.168.24.253.568.253.974 0 1.153-.864 1.715-2.642 1.715-.66 0-1.412-.138-2.236-.41a8.409 8.409 0 0 1-2.29-1.16l-.17-.122v3.938l.063.029c.578.267 1.308.492 2.168.67.858.177 1.638.267 2.316.267 2.09 0 3.774-.495 5.002-1.472 1.237-.985 1.863-2.297 1.863-3.902 0-1.158-.337-2.15-1.002-2.951-.66-.795-1.806-1.524-3.405-2.168-1.273-.511-2.089-.936-2.425-1.261-.325-.315-.489-.76-.489-1.323 0-.5.203-.9.62-1.224.421-.326 1.006-.492 1.741-.492.681 0 1.379.108 2.072.319a6.62 6.62 0 0 1 1.81.839l.167.114v-3.735l-.064-.028c-.469-.2-1.087-.373-1.838-.512a11.26 11.26 0 0 0-2.015-.209Zm-17.247 14.66c-1.484 0-2.655-.493-3.48-1.462-.83-.975-1.25-2.364-1.25-4.13 0-1.821.421-3.247 1.251-4.239.825-.985 1.984-1.485 3.446-1.485 1.418 0 2.547.478 3.356 1.42.813.948 1.225 2.362 1.225 4.205 0 1.865-.388 3.298-1.153 4.256-.759.951-1.901 1.435-3.395 1.435Zm.183-14.66c-2.833 0-5.083.83-6.686 2.466-1.603 1.637-2.416 3.903-2.416 6.734 0 2.69.793 4.853 2.358 6.429 1.565 1.576 3.694 2.375 6.329 2.375 2.745 0 4.951-.842 6.554-2.501 1.603-1.658 2.416-3.902 2.416-6.667 0-2.732-.763-4.911-2.267-6.476-1.505-1.567-3.621-2.36-6.288-2.36Zm-15.311 3.388V18.8h-4.041v17.176h4.041V27.19c0-1.494.338-2.721 1.007-3.648.66-.916 1.539-1.38 2.613-1.38.364 0 .772.06 1.215.178.438.118.755.246.942.381l.17.123v-4.073l-.066-.028c-.376-.16-.908-.24-1.582-.24a4.14 4.14 0 0 0-2.702.968c-.683.564-1.177 1.338-1.555 2.304h-.042Zm-11.276-3.389c-1.854 0-3.507.398-4.914 1.181a7.96 7.96 0 0 0-3.24 3.333c-.738 1.422-1.113 3.083-1.113 4.936 0 1.623.364 3.112 1.082 4.425a7.603 7.603 0 0 0 3.023 3.056c1.286.713 2.772 1.074 4.417 1.074 1.92 0 3.56-.384 4.874-1.14l.053-.032v-3.7l-.17.123c-.595.434-1.26.78-1.976 1.03-.714.248-1.366.374-1.936.374-1.586 0-2.858-.496-3.782-1.474-.926-.979-1.396-2.354-1.396-4.084 0-1.742.49-3.152 1.455-4.193.962-1.038 2.237-1.564 3.789-1.564 1.328 0 2.623.45 3.847 1.338l.169.123v-3.9l-.055-.03c-.46-.259-1.089-.472-1.869-.633a11.163 11.163 0 0 0-2.258-.243Zm-12.05.414h-4.04v17.176h4.04V18.8Zm-1.978-7.317c-.665 0-1.245.226-1.722.675a2.228 2.228 0 0 0-.721 1.685c0 .658.24 1.214.713 1.652.471.436 1.053.658 1.73.658.676 0 1.26-.222 1.736-.658.48-.438.723-.994.723-1.652 0-.645-.236-1.206-.703-1.667-.466-.46-1.057-.693-1.756-.693Zm-10.081 6.05v18.443h4.123V12.01h-5.707L73.28 29.811 66.24 12.01H60.3v23.967h3.876V17.531h.133l7.433 18.445h2.924l7.318-18.443h.133Z"/>
  <path fill="#fff" d="M27.325 23.007H8.318V4h19.007v19.007Z"/>
  <path fill="#fff" d="M48.311 23.007H29.305V4H48.31v19.007Z"/>
  <path fill="#fff" d="M27.325 44H8.318V24.993h19.007V44Z"/>
  <path fill="#fff" d="M48.311 44H29.305V24.993H48.31V44Z"/>
</svg>
