<svg xmlns="http://www.w3.org/2000/svg" width="160" height="72" fill="none" viewBox="0 0 160 72">
  <path fill="#fff" d="M33.556 62.101v4.222H4v-4.222h29.556Zm46.188 0a16.004 16.004 0 0 1-10.875 4.222l-31.091-.042v-4.18h41.966Zm43.946 0-1.474 4.222-1.461-4.222h2.935Zm-14.134 0v4.222H88.445v-4.222h21.111Zm46.444 0v4.222h-21.111v-4.222H156Zm-71.474-8.06a16.015 16.015 0 0 1-1.698 4.222h-45.05V54.04h46.748Zm41.994 0-1.482 4.222h-5.631l-1.482-4.222h8.595Zm-16.964 0v4.222H88.445V54.04h21.111Zm46.444 0v4.222h-21.111V54.04H156Zm-122.445 0v4.222H4V54.04h29.556Zm-8.444-8.061v4.222H12.444V45.98h12.667Zm33.778 0v4.222H46.222V45.98H58.89Zm25.536 0c.374 1.376.564 2.796.565 4.222H70.788V45.98h13.637Zm44.925 0-1.483 4.222h-11.29l-1.482-4.222h14.255Zm-19.794 0v4.222H96.889V45.98h12.667Zm38 0v4.222h-12.667V45.98h12.667ZM25.111 37.92v4.221H12.444V37.92h12.667Zm84.445 0v4.221H96.889V37.92h12.667Zm38 0v4.221h-12.667V37.92h12.667Zm-68.255-.001a16.184 16.184 0 0 1 3.522 4.222h-36.6V37.92H79.3Zm52.878 0-1.482 4.222h-16.95l-1.482-4.222h19.914Zm-11.144-8.06 1.187 3.413 1.187-3.413h24.146v4.222h-12.666v-3.88l-1.362 3.88h-22.609l-1.363-3.88v3.88H96.889v-4.222h24.146Zm-74.813 0h36.601a16.188 16.188 0 0 1-3.522 4.222H46.222v-4.223Zm-21.11 0v4.222H12.443v-4.223H25.11Zm0-8.061v4.222H12.443v-4.222H25.11Zm33.777 0v4.222H46.222v-4.222H58.89Zm26.1 0c0 1.426-.19 2.846-.564 4.222H70.788v-4.222H84.99Zm33.243 0 1.469 4.222H96.889v-4.222h21.343Zm29.323 0v4.222h-22.811l1.468-4.222h21.343Zm-114-8.06v4.222H4v-4.223h29.556Zm49.273 0a16.013 16.013 0 0 1 1.698 4.221H37.778v-4.222h45.05Zm73.172 0v4.221h-28.453l1.468-4.222H156Zm-40.571 0 1.469 4.221H88.445v-4.222h26.984ZM33.555 5.676v4.222H4V5.677h29.556Zm35.314 0a16.062 16.062 0 0 1 10.875 4.222H37.778V5.677h31.09Zm87.131 0v4.222h-25.65l1.468-4.222H156Zm-43.374 0 1.469 4.222h-25.65V5.677h24.181Z"/>
</svg>
